<svg width="59" height="53" viewBox="0 0 59 53" fill="none" xmlns="http://www.w3.org/2000/svg">
<path opacity="0.25" d="M25.8125 37.7188C25.5312 39.6875 25.0391 41.5625 24.3359 43.3438C23.6328 45.0781 22.7891 46.625 21.8047 47.9844C20.8203 49.2969 19.7422 50.3516 18.5703 51.1484C17.4453 51.8984 16.2969 52.2734 15.125 52.2734C14.0469 52.2734 12.9219 52.2031 11.75 52.0625C10.625 51.875 9.52344 51.6172 8.44531 51.2891C7.41406 50.9141 6.42969 50.4453 5.49219 49.8828C4.55469 49.3203 3.78125 48.6172 3.17188 47.7734C2.79688 47.2578 2.42188 46.6484 2.04688 45.9453C1.71875 45.1953 1.4375 44.3047 1.20312 43.2734C1.01562 42.1953 0.898438 40.9297 0.851562 39.4766C0.851562 38.0234 0.992188 36.3125 1.27344 34.3438C1.69531 31.5312 2.28125 28.8125 3.03125 26.1875C3.82812 23.5156 5.04688 20.8203 6.6875 18.1016C8.375 15.3828 10.6016 12.5703 13.3672 9.66406C16.1797 6.71094 19.7656 3.54688 24.125 0.171875L28.9062 6.92188C26.2344 8.9375 23.9609 10.8359 22.0859 12.6172C20.2109 14.3516 18.6641 16.0156 17.4453 17.6094C16.2266 19.1562 15.3125 20.6094 14.7031 21.9688C14.0938 23.2812 13.7188 24.5234 13.5781 25.6953C13.3906 26.8203 13.6953 27.6875 14.4922 28.2969C15.2891 28.8594 16.3438 29.3281 17.6562 29.7031C20.3281 30.4062 22.4141 31.4844 23.9141 32.9375C25.4141 34.3438 26.0469 35.9375 25.8125 37.7188ZM55.0625 37.7188C54.7812 39.6875 54.2891 41.5625 53.5859 43.3438C52.8828 45.0781 52.0391 46.625 51.0547 47.9844C50.0703 49.2969 48.9922 50.3516 47.8203 51.1484C46.6953 51.8984 45.5469 52.2734 44.375 52.2734C42.1719 52.2734 39.9453 51.9453 37.6953 51.2891C35.4453 50.5859 33.6641 49.4141 32.3516 47.7734C31.9766 47.2578 31.6016 46.6484 31.2266 45.9453C30.8984 45.1953 30.6172 44.3047 30.3828 43.2734C30.1953 42.1953 30.0781 40.9297 30.0312 39.4766C30.0312 38.0234 30.1719 36.3125 30.4531 34.3438C30.875 31.5312 31.4844 28.8125 32.2812 26.1875C33.0781 23.5156 34.2969 20.8203 35.9375 18.1016C37.625 15.3828 39.8516 12.5703 42.6172 9.66406C45.4297 6.71094 49.0156 3.54688 53.375 0.171875L58.1562 6.92188C55.4844 8.9375 53.2109 10.8359 51.3359 12.6172C49.4609 14.3516 47.9141 16.0156 46.6953 17.6094C45.4766 19.1562 44.5625 20.6094 43.9531 21.9688C43.3438 23.2812 42.9688 24.5234 42.8281 25.6953C42.6406 26.8203 42.9453 27.6875 43.7422 28.2969C44.5391 28.8594 45.5938 29.3281 46.9062 29.7031C49.5781 30.4062 51.6641 31.4844 53.1641 32.9375C54.6641 34.3438 55.2969 35.9375 55.0625 37.7188Z" fill="#F4F4ED"/>
</svg>
