<svg width="58" height="53" viewBox="0 0 58 53" fill="none" xmlns="http://www.w3.org/2000/svg">
<path opacity="0.25" d="M3.02832 14.7266C3.30957 12.7578 3.80176 10.9063 4.50488 9.17188C5.20801 7.39063 6.05176 5.84375 7.03613 4.53125C8.02051 3.17188 9.0752 2.11719 10.2002 1.36719C11.3721 0.570313 12.5439 0.171875 13.7158 0.171875C15.9189 0.171875 18.1455 0.523438 20.3955 1.22656C22.6455 1.88281 24.4268 3.03125 25.7393 4.67188C26.1143 5.1875 26.4658 5.82031 26.7939 6.57031C27.1689 7.27344 27.4502 8.16406 27.6377 9.24219C27.8721 10.2734 27.9893 11.5156 27.9893 12.9688C28.0361 14.4219 27.9189 16.1328 27.6377 18.1016C27.2158 20.9141 26.6064 23.6562 25.8096 26.3281C25.0127 28.9531 23.7705 31.625 22.083 34.3438C20.4424 37.0625 18.2158 39.8984 15.4033 42.8516C12.6377 45.7578 9.0752 48.8984 4.71582 52.2734L0.00488281 45.5234C2.67676 43.5078 4.9502 41.6328 6.8252 39.8984C8.7002 38.1172 10.2236 36.4531 11.3955 34.9062C12.6143 33.3125 13.5283 31.8594 14.1377 30.5469C14.7471 29.1875 15.1221 27.9219 15.2627 26.75C15.4502 25.625 15.1455 24.7812 14.3486 24.2188C13.5518 23.6094 12.4971 23.1172 11.1846 22.7422C8.5127 22.0391 6.42676 20.9844 4.92676 19.5781C3.42676 18.125 2.79395 16.5078 3.02832 14.7266ZM32.2783 14.7266C32.5596 12.7578 33.0518 10.9063 33.7549 9.17188C34.458 7.39063 35.3018 5.84375 36.2861 4.53125C37.2705 3.17188 38.3252 2.11719 39.4502 1.36719C40.6221 0.570313 41.7939 0.171875 42.9658 0.171875C45.1689 0.171875 47.3955 0.523438 49.6455 1.22656C51.8955 1.88281 53.6768 3.03125 54.9893 4.67188C55.3643 5.1875 55.7158 5.82031 56.0439 6.57031C56.4189 7.27344 56.7002 8.16406 56.8877 9.24219C57.1221 10.2734 57.2393 11.5156 57.2393 12.9688C57.2861 14.4219 57.1689 16.1328 56.8877 18.1016C56.4658 20.9141 55.8564 23.6562 55.0596 26.3281C54.2627 28.9531 53.0205 31.625 51.333 34.3438C49.6924 37.0625 47.4658 39.8984 44.6533 42.8516C41.8877 45.7578 38.3252 48.8984 33.9658 52.2734L29.1846 45.5234C31.8564 43.5078 34.1299 41.6328 36.0049 39.8984C37.8799 38.1172 39.4268 36.4531 40.6455 34.9062C41.8643 33.3125 42.7783 31.8594 43.3877 30.5469C43.9971 29.1875 44.3721 27.9219 44.5127 26.75C44.7002 25.625 44.3955 24.7812 43.5986 24.2188C42.8018 23.6094 41.7471 23.1172 40.4346 22.7422C37.7627 22.0391 35.6768 20.9844 34.1768 19.5781C32.6768 18.125 32.0439 16.5078 32.2783 14.7266Z" fill="#F4F4ED"/>
</svg>
