<svg width="13" height="10" viewBox="0 0 13 10" fill="none" xmlns="http://www.w3.org/2000/svg">
<path d="M11.6801 0.822266H1.81504C1.18661 0.822266 0.676758 1.32978 0.676758 1.95533V8.75372C0.676758 9.37926 1.18661 9.88678 1.81504 9.88678H11.6801C12.3086 9.88678 12.8184 9.37926 12.8184 8.75372V1.95533C12.8184 1.32978 12.3086 0.822266 11.6801 0.822266ZM1.81504 1.57764H11.6801C11.8888 1.57764 12.0596 1.7476 12.0596 1.95533V2.9326C11.5402 3.3693 10.798 3.97124 8.48821 5.79595C8.08744 6.11226 7.29776 6.87472 6.74759 6.86528C6.19742 6.87472 5.40537 6.11226 5.00697 5.79595C2.69721 3.97124 1.95495 3.3693 1.43561 2.9326V1.95533C1.43561 1.7476 1.60635 1.57764 1.81504 1.57764ZM11.6801 9.1314H1.81504C1.60635 9.1314 1.43561 8.96145 1.43561 8.75372V3.91459C1.9763 4.35601 2.83001 5.03821 4.53506 6.38608C5.0212 6.77321 5.87965 7.62537 6.74759 7.62065C7.61079 7.62773 8.46213 6.78266 8.96012 6.38608C10.6652 5.03821 11.5189 4.35601 12.0596 3.91459V8.75372C12.0596 8.96145 11.8888 9.1314 11.6801 9.1314Z" fill="#FCFCFC"/>
</svg>
