<svg width="10" height="14" viewBox="0 0 10 14" fill="none" xmlns="http://www.w3.org/2000/svg">
<path d="M7.05113 2.61962V8.99287H3.40863V2.61962H7.05113ZM8.41707 0.0703125H2.0427C1.28858 0.0703125 0.676758 0.64125 0.676758 1.34496V12.3919C0.676758 13.0957 1.28858 13.6666 2.0427 13.6666H8.41707C9.17118 13.6666 9.78301 13.0957 9.78301 12.3919V1.34496C9.78301 0.64125 9.17118 0.0703125 8.41707 0.0703125ZM2.0427 12.8168C1.79227 12.8168 1.58738 12.6256 1.58738 12.3919V1.34496C1.58738 1.11128 1.79227 0.92008 2.0427 0.92008H8.41707C8.66749 0.92008 8.87238 1.11128 8.87238 1.34496V12.3919C8.87238 12.6256 8.66749 12.8168 8.41707 12.8168H2.0427ZM7.62027 1.76985H2.83949C2.65168 1.76985 2.49801 1.91325 2.49801 2.08851V9.52398C2.49801 9.69924 2.65168 9.84264 2.83949 9.84264H7.62027C7.80809 9.84264 7.96176 9.69924 7.96176 9.52398V2.08851C7.96176 1.91325 7.80809 1.76985 7.62027 1.76985ZM6.25434 11.1173H4.20543C4.01761 11.1173 3.86395 11.2607 3.86395 11.436V11.6484C3.86395 11.8237 4.01761 11.9671 4.20543 11.9671H6.25434C6.44215 11.9671 6.59582 11.8237 6.59582 11.6484V11.436C6.59582 11.2607 6.44215 11.1173 6.25434 11.1173Z" fill="#FCFCFC"/>
</svg>
