<svg width="73" height="72" viewBox="0 0 73 72" fill="none" xmlns="http://www.w3.org/2000/svg">
<ellipse cx="36.45" cy="36" rx="36.45" ry="36" fill="#C4C4C4" fill-opacity="0.02"/>
<path d="M72.4 36C72.4 55.6003 56.3105 71.5 36.45 71.5C16.5895 71.5 0.5 55.6003 0.5 36C0.5 16.3997 16.5895 0.5 36.45 0.5C56.3105 0.5 72.4 16.3997 72.4 36Z" stroke="white" stroke-opacity="0.1"/>
<path d="M48.8989 34.4259C49.7788 31.7228 47.8898 29.802 46.8355 29.1989C46.9697 27.3297 45.536 25.5101 43.4847 25.2584C42.8842 23.9009 41.5193 22.9961 39.9826 22.9961C38.7469 22.9961 37.6579 23.5843 36.9563 24.4802C36.2548 23.5843 35.1658 22.9961 33.9301 22.9961C32.3934 22.9961 31.0285 23.9009 30.4275 25.2584C28.3762 25.5101 26.9425 27.3297 27.0767 29.1989C26.0224 29.8025 24.1339 31.7228 25.0133 34.4259C23.9354 35.2767 23.2876 36.5681 23.2876 37.9361C23.2876 39.5606 24.1625 41.0323 25.562 41.8339C25.4475 44.2252 27.4058 46.2359 29.8305 46.1744C30.5461 47.5334 31.9708 48.4089 33.5517 48.4089C34.9538 48.4089 36.1905 47.724 36.9563 46.6836C37.7222 47.724 38.9589 48.4089 40.361 48.4089C41.9419 48.4089 43.3666 47.5334 44.0822 46.1744C46.5069 46.2359 48.4647 44.2248 48.3507 41.8339C49.7502 41.0323 50.6251 39.5606 50.6251 37.9361C50.6251 36.5681 49.9773 35.2767 48.8989 34.4259ZM36.1493 29.8491C36.1493 31.1441 35.2417 32.2256 34.0211 32.5314C33.8467 32.575 33.7281 32.7344 33.7281 32.9116V33.7147C33.7281 33.9663 33.9638 34.1569 34.2146 34.1063C34.9397 33.9603 35.5985 33.6392 36.1493 33.1935V44.2645C36.1493 45.6736 34.9844 46.8206 33.5517 46.8206C31.9492 46.8206 31.329 45.7381 30.8833 44.4283C30.0647 44.5642 29.9642 44.5871 29.7687 44.5871C28.336 44.5871 27.1711 43.44 27.1711 42.0309C27.1711 41.7227 27.2143 41.5772 27.3556 40.8908C26.0771 40.3696 24.9012 39.6892 24.9012 37.9361C24.9012 36.2554 26.0575 35.6057 27.0576 35.0404C26.4244 33.7643 26.4143 33.5911 26.4143 33.0967C26.4143 31.4136 27.5149 30.6914 28.8953 30.134C28.7692 29.593 28.6842 29.3096 28.6842 29.0019C28.6842 27.8037 29.6692 26.8279 30.9697 26.8279H30.9903L31.6301 26.8413C31.9271 25.7022 32.3854 24.5844 33.9301 24.5844C35.1533 24.5844 36.1493 25.5637 36.1493 26.7683V29.8491ZM46.5571 40.8908C46.6983 41.5772 46.7416 41.7227 46.7416 42.0309C46.7416 43.44 45.5767 44.5871 44.144 44.5871C43.949 44.5871 43.8485 44.5642 43.0294 44.4283C42.5837 45.7381 41.9635 46.8206 40.361 46.8206C38.9283 46.8206 37.7634 45.6736 37.7634 44.2645V33.1935C38.3142 33.6392 38.973 33.9603 39.6981 34.1063C39.9489 34.1569 40.1846 33.9663 40.1846 33.7147V32.9116C40.1846 32.7344 40.066 32.575 39.8916 32.5314C38.671 32.2256 37.7634 31.1441 37.7634 29.8491V26.7683C37.7634 25.5637 38.7594 24.5844 39.9826 24.5844C41.5273 24.5844 41.9856 25.7022 42.2821 26.8413L42.9219 26.8279H42.9425C44.243 26.8279 45.228 27.8037 45.228 29.0019C45.228 29.3096 45.1425 29.5935 45.0169 30.134C46.3968 30.6909 47.4979 31.4136 47.4979 33.0967C47.4979 33.5911 47.4878 33.7643 46.8546 35.0404C47.8547 35.6057 49.011 36.2554 49.011 37.9361C49.011 39.6897 47.8356 40.3701 46.5571 40.8908Z" fill="#FCFCFC"/>
</svg>
