<svg width="73" height="72" viewBox="0 0 73 72" fill="none" xmlns="http://www.w3.org/2000/svg">
<ellipse cx="36.45" cy="36" rx="36.45" ry="36" fill="#C4C4C4" fill-opacity="0.02"/>
<path d="M72.4 36C72.4 55.6003 56.3105 71.5 36.45 71.5C16.5895 71.5 0.5 55.6003 0.5 36C0.5 16.3997 16.5895 0.5 36.45 0.5C56.3105 0.5 72.4 16.3997 72.4 36Z" stroke="white" stroke-opacity="0.1"/>
<path d="M36.9558 33.052C35.0715 33.052 33.538 34.566 33.538 36.4271C33.538 38.2883 35.0715 39.8022 36.9558 39.8022C38.8401 39.8022 40.3736 38.2883 40.3736 36.4271C40.3736 34.566 38.8401 33.052 36.9558 33.052ZM36.9558 37.8736C36.1467 37.8736 35.4913 37.2257 35.4913 36.4271C35.4913 35.6279 36.1473 34.9806 36.9558 34.9806C37.7643 34.9806 38.4203 35.6279 38.4203 36.4271C38.4203 37.2257 37.7649 37.8736 36.9558 37.8736ZM48.4717 36.4271C49.4206 35.2055 50.1016 33.979 50.4189 32.8109C50.7869 31.4482 50.6593 30.194 50.0491 29.1833C48.9367 27.3451 46.3659 26.5941 43.122 26.8671C41.7032 23.2775 39.4912 20.998 36.9558 20.998C34.4204 20.998 32.2084 23.2768 30.7902 26.8665C27.5457 26.5935 24.9755 27.3445 23.8643 29.1839C23.2523 30.194 23.1247 31.4482 23.4927 32.8109C23.81 33.979 24.491 35.2055 25.4399 36.4271C24.491 37.6488 23.81 38.8753 23.4927 40.0433C23.1247 41.406 23.2523 42.6602 23.8625 43.671C24.8297 45.2681 26.8891 46.0528 29.5405 46.0528C29.9286 46.0528 30.3643 45.9835 30.7762 45.9498C32.1937 49.5611 34.4118 51.8562 36.9558 51.8562C39.4998 51.8562 41.7179 49.5611 43.1354 45.9498C43.5473 45.9835 43.983 46.0528 44.3711 46.0528C47.02 46.0528 49.0819 45.2681 50.0473 43.671C50.6593 42.6602 50.7875 41.406 50.4189 40.0433C50.1016 38.8753 49.4206 37.6488 48.4717 36.4271ZM25.3807 32.3119C25.1464 31.4531 25.2013 30.7328 25.5412 30.1723C26.1038 29.2399 27.5378 28.7271 29.5161 28.7271C29.7193 28.7271 29.939 28.7433 30.1532 28.7542C29.8145 29.9427 29.557 31.2355 29.3861 32.6042C28.408 33.3516 27.5146 34.1278 26.7427 34.9216C26.0885 34.0236 25.6053 33.1388 25.3807 32.3119ZM29.1719 37.556C28.7539 37.1823 28.3652 36.8062 28.0046 36.4271C28.3646 36.048 28.7539 35.6719 29.1719 35.2983C29.1591 35.6725 29.1439 36.045 29.1439 36.4271C29.1439 36.8092 29.1585 37.1817 29.1719 37.556ZM25.5394 42.6819C25.2019 42.1214 25.1464 41.4012 25.3813 40.5423C25.6059 39.7154 26.0892 38.8307 26.7427 37.9327C27.5146 38.7264 28.4086 39.5027 29.3861 40.25C29.557 41.6206 29.8151 42.914 30.1538 44.1037C27.8521 44.2212 26.1624 43.7107 25.5394 42.6819ZM42.3074 31.0667C41.796 30.7461 41.2761 30.4297 40.7318 30.1301C40.3394 29.9138 39.9471 29.7137 39.5553 29.5184C40.3327 29.2882 41.076 29.1158 41.7868 28.988C41.9946 29.6721 42.1683 30.3658 42.3074 31.0667ZM36.9558 22.9267C38.4246 22.9267 39.9776 24.4955 41.1174 27.1438C39.7927 27.4035 38.391 27.8164 36.9564 28.3703C35.5212 27.8164 34.1195 27.4023 32.7942 27.1426C33.934 24.4949 35.487 22.9267 36.9558 22.9267ZM32.1248 28.988C32.8357 29.1158 33.5789 29.2876 34.3557 29.5184C33.9639 29.7137 33.5716 29.9138 33.1798 30.1301C32.6355 30.4297 32.1156 30.7461 31.6042 31.0667C31.7433 30.3658 31.917 29.6721 32.1248 28.988ZM31.6042 41.7875C32.1156 42.1082 32.6355 42.4246 33.1798 42.7241C33.5899 42.9501 33.9963 43.1153 34.4057 43.3184C33.6125 43.5552 32.8503 43.7379 32.1254 43.8686C31.9277 43.2159 31.7501 42.5246 31.6042 41.7875ZM36.9558 49.9276C35.4815 49.9276 33.9218 48.3467 32.7807 45.6797C34.1122 45.4212 35.5127 45.0114 36.9558 44.4551C38.399 45.012 39.7994 45.4212 41.1309 45.6797C39.9898 48.3467 38.4301 49.9276 36.9558 49.9276ZM41.7868 43.868C41.0625 43.7379 40.301 43.5552 39.5077 43.3184C39.9165 43.1153 40.323 42.9501 40.7324 42.7247C41.2767 42.4252 41.7966 42.1088 42.308 41.7881C42.1615 42.524 41.9846 43.2147 41.7868 43.868ZM42.6832 39.2038C41.7826 39.8498 40.8166 40.4712 39.7823 41.0408C38.8243 41.5687 37.8803 42.0165 36.957 42.4029C36.0332 42.0165 35.0886 41.5687 34.1293 41.0408C33.095 40.4706 32.129 39.8498 31.2284 39.2038C31.1435 38.3166 31.0966 37.3908 31.0966 36.4271C31.0966 35.4634 31.1435 34.5377 31.2284 33.6505C32.129 33.0044 33.095 32.383 34.1293 31.8135C35.0867 31.2861 36.0326 30.8323 36.9552 30.4459C37.8784 30.8323 38.8243 31.2861 39.7823 31.8135C40.8166 32.3836 41.7826 33.0044 42.6832 33.6505C42.7675 34.5377 42.8151 35.4634 42.8151 36.4271C42.8151 37.3908 42.7675 38.3166 42.6832 39.2038ZM44.3961 28.7264C46.3738 28.7264 47.8084 29.2399 48.3729 30.1717C48.7103 30.7322 48.7658 31.4525 48.5309 32.3113C48.3063 33.1382 47.8231 34.023 47.1695 34.921C46.3976 34.1272 45.5036 33.351 44.5261 32.6036C44.3552 31.2343 44.0977 29.9421 43.759 28.7536C43.9732 28.7427 44.1929 28.7264 44.3961 28.7264ZM44.7397 35.2983C45.1577 35.6719 45.5464 36.048 45.907 36.4271C45.5464 36.8062 45.1577 37.1823 44.7397 37.556C44.7525 37.1817 44.7677 36.8092 44.7677 36.4271C44.7677 36.045 44.7531 35.6725 44.7397 35.2983ZM48.3704 42.6819C47.7504 43.7107 46.0608 44.2212 43.7578 44.1025C44.0971 42.9128 44.3546 41.62 44.5255 40.25C45.5036 39.5027 46.397 38.7264 47.1689 37.9327C47.8224 38.8307 48.3063 39.7154 48.5303 40.5423C48.7652 41.4012 48.7103 42.1214 48.3704 42.6819Z" fill="#FCFCFC"/>
</svg>
