<svg width="73" height="72" viewBox="0 0 73 72" fill="none" xmlns="http://www.w3.org/2000/svg">
<ellipse cx="36.45" cy="36" rx="36.45" ry="36" fill="#C4C4C4" fill-opacity="0.02"/>
<path d="M72.4 36C72.4 55.6003 56.3105 71.5 36.45 71.5C16.5895 71.5 0.5 55.6003 0.5 36C0.5 16.3997 16.5895 0.5 36.45 0.5C56.3105 0.5 72.4 16.3997 72.4 36Z" stroke="white" stroke-opacity="0.1"/>
<path d="M45.9947 31.3929L44.0819 29.5036L45.0595 28.538C45.5654 28.0384 45.5654 27.2287 45.0595 26.7291L43.6861 25.3725C43.4332 25.1227 43.1018 24.998 42.7704 24.998C42.4389 24.998 42.1075 25.1227 41.8546 25.3725L40.8769 26.3382L39.8997 25.3725C39.6468 25.1227 39.3153 24.998 38.9839 24.998C38.6525 24.998 38.3211 25.1227 38.0682 25.3725L34.1636 29.2291C33.6577 29.7287 33.6577 30.5384 34.1636 31.0376L35.1412 32.0032L25.0991 41.9217C24.5933 42.4213 24.5933 43.2311 25.0991 43.7307L26.4725 45.0872C26.7254 45.337 27.0569 45.4617 27.3883 45.4617C27.7197 45.4617 28.0511 45.337 28.304 45.0872L38.3462 35.1687L40.259 37.058V41.6247H41.5539C46.56 41.6247 50.6184 37.6163 50.6184 32.6719V31.3929H45.9947ZM42.7691 26.277H42.7704L44.1438 27.6335L43.1661 28.5992L41.7923 27.2419L42.7691 26.277ZM27.3883 44.1827L26.0149 42.8262L36.057 32.9077L37.4304 34.2642L27.3883 44.1827ZM41.5539 40.3458V36.5284L35.0793 30.1335L38.9827 26.277H38.9839L45.4585 32.6719H49.3235C49.3235 36.9033 45.8381 40.3458 41.5539 40.3458Z" fill="#FCFCFC"/>
</svg>
