<svg width="73" height="72" viewBox="0 0 73 72" fill="none" xmlns="http://www.w3.org/2000/svg">
<ellipse cx="36.45" cy="36" rx="36.45" ry="36" fill="#C4C4C4" fill-opacity="0.02"/>
<path d="M72.4 36C72.4 55.6003 56.3105 71.5 36.45 71.5C16.5895 71.5 0.5 55.6003 0.5 36C0.5 16.3997 16.5895 0.5 36.45 0.5C56.3105 0.5 72.4 16.3997 72.4 36Z" stroke="white" stroke-opacity="0.1"/>
<path d="M28.9829 32.4987C28.9962 35.0976 28.9502 40.4279 26.5942 48.2495H47.3172C44.9634 40.457 44.917 35.114 44.9298 32.4987L47.8466 29.6178C48.0053 29.4611 48.1311 29.2751 48.217 29.0703C48.3029 28.8656 48.347 28.6461 48.347 28.4245V20.6856C48.347 19.7536 47.5821 18.998 46.6384 18.998H27.2743C26.3307 18.998 25.5657 19.7536 25.5657 20.6856V28.4245C25.5657 28.8721 25.7458 29.3014 26.0661 29.6179L28.9829 32.4987ZM27.8439 21.2482H31.2611V24.6233H33.5392V21.2482H40.3736V24.6233H42.6517V21.2482H46.0689V28.1915L42.6563 31.5622C42.6422 34.4382 42.574 39.0394 44.3315 45.9994H29.5784C31.3376 39.0246 31.2709 34.4361 31.2563 31.5621L27.8439 28.1915V21.2482ZM38.9497 36.999H34.963V33.0613C34.963 31.9739 35.8555 31.0924 36.9564 31.0924C38.0573 31.0924 38.9497 31.9739 38.9497 33.0613V36.999ZM50.6252 51.3434V51.906C50.6252 52.3719 50.2426 52.7498 49.7709 52.7498H24.1419C23.6701 52.7498 23.2876 52.3719 23.2876 51.906V51.3434C23.2876 50.8774 23.6701 50.4996 24.1419 50.4996H49.7709C50.2426 50.4996 50.6252 50.8774 50.6252 51.3434Z" fill="white"/>
</svg>
