<svg width="73" height="72" viewBox="0 0 73 72" fill="none" xmlns="http://www.w3.org/2000/svg">
<ellipse cx="36.45" cy="36" rx="36.45" ry="36" fill="#C4C4C4" fill-opacity="0.02"/>
<path d="M72.4 36C72.4 55.6003 56.3105 71.5 36.45 71.5C16.5895 71.5 0.5 55.6003 0.5 36C0.5 16.3997 16.5895 0.5 36.45 0.5C56.3105 0.5 72.4 16.3997 72.4 36Z" stroke="white" stroke-opacity="0.1"/>
<path d="M50.3858 35.4205L45.7278 27.9966C45.5924 27.7966 45.375 27.6962 45.1575 27.6962C44.9401 27.6962 44.7227 27.7966 44.5873 27.9966L39.9293 35.4205C39.764 35.6643 39.6691 35.9571 39.6939 36.2491C39.9276 39.0196 42.2846 41.1965 45.1575 41.1965C48.0305 41.1965 50.3875 39.0196 50.6212 36.2491C50.646 35.9571 50.5511 35.6643 50.3858 35.4205ZM45.1575 39.8465C43.3815 39.8465 41.845 38.7019 41.2799 37.1464H49.0198C48.4466 38.7171 46.9208 39.8465 45.1575 39.8465ZM41.3017 35.7964L45.1593 29.647L49.0437 35.7964H41.3017ZM46.1827 45.2466H37.6398V30.3009C38.5919 30.0575 39.336 29.3251 39.5884 28.3872L45.9226 26.2938C46.1015 26.2348 46.1981 26.0432 46.1383 25.8669L45.9213 25.2269C45.8615 25.0501 45.6676 24.9547 45.489 25.0138L39.5765 26.9676C39.2531 25.8327 38.2087 24.9961 36.9563 24.9961C35.4464 24.9961 34.2226 26.2048 34.2226 27.6962C34.2226 28.0425 34.2939 28.3703 34.4165 28.6728L27.9901 30.7966C27.8111 30.8557 27.7146 31.0472 27.7744 31.2236L27.9914 31.8636C28.0512 32.0403 28.2451 32.1357 28.4237 32.0766L35.2772 29.8119C35.5685 30.0381 35.9039 30.206 36.2733 30.3005V46.2592C36.2733 46.4456 36.4263 46.5967 36.6151 46.5967H46.1831C46.3719 46.5967 46.5248 46.4456 46.5248 46.2592V45.5842C46.5244 45.3977 46.3715 45.2466 46.1827 45.2466ZM35.5895 27.6962C35.5895 26.952 36.2029 26.3461 36.9563 26.3461C37.7098 26.3461 38.3232 26.952 38.3232 27.6962C38.3232 28.4404 37.7098 29.0462 36.9563 29.0462C36.2029 29.0462 35.5895 28.4404 35.5895 27.6962ZM29.3254 33.3967C29.19 33.1963 28.9725 33.0963 28.7551 33.0963C28.5377 33.0963 28.3203 33.1967 28.1849 33.3967L23.5269 40.8206C23.3616 41.0645 23.2667 41.3573 23.2915 41.6492C23.5252 44.4197 25.8821 46.5967 28.7551 46.5967C31.6281 46.5967 33.9851 44.4197 34.2188 41.6492C34.2435 41.3573 34.1487 41.0645 33.9834 40.8206L29.3254 33.3967ZM28.7551 45.2466C26.9791 45.2466 25.4426 44.1021 24.8775 42.5466H32.6174C32.0442 44.1173 30.5184 45.2466 28.7551 45.2466ZM24.8993 41.1965L28.7568 35.0471L32.6413 41.1965H24.8993Z" fill="white"/>
</svg>
