<svg width="73" height="72" viewBox="0 0 73 72" fill="none" xmlns="http://www.w3.org/2000/svg">
<ellipse cx="36.45" cy="36" rx="36.45" ry="36" fill="#C4C4C4" fill-opacity="0.02"/>
<path d="M72.4 36C72.4 55.6003 56.3105 71.5 36.45 71.5C16.5895 71.5 0.5 55.6003 0.5 36C0.5 16.3997 16.5895 0.5 36.45 0.5C56.3105 0.5 72.4 16.3997 72.4 36Z" stroke="white" stroke-opacity="0.1"/>
<path d="M50.3525 39.5611C49.6121 36.5008 47.5446 34.5431 47.2826 31.8091C47.0889 29.857 48.4901 28.58 48.3477 26.2172C48.1996 23.7814 46.4738 22.0037 44.2468 21.998C42.0198 22.0037 40.2997 23.7814 40.1516 26.2172C40.0092 28.58 41.4046 29.8626 41.2167 31.8091C40.9547 34.5431 38.8814 36.5064 38.1467 39.5611C37.4347 42.5033 38.1695 47.4313 39.7529 50.3228L40.0092 50.7954H48.4958L48.7521 50.3228C50.3298 47.4313 51.0645 42.5033 50.3525 39.5611ZM46.525 26.3241C46.6219 27.933 45.608 29.0975 45.46 30.999H43.0336C42.8855 29.0919 41.866 27.9387 41.9685 26.3241C42.1735 22.9431 46.32 22.9431 46.525 26.3241ZM47.3851 48.9952H41.1084C39.9124 46.4524 39.3428 42.3176 39.9124 39.9774C40.5218 37.4571 42.2988 35.6457 42.8798 32.7935H45.6137C46.1947 35.6457 47.9718 37.4571 48.5812 39.9774C49.1451 42.3233 48.5755 46.4524 47.3851 48.9952ZM32.7016 31.8147C32.5137 29.8626 33.9091 28.5856 33.7667 26.2229C33.6186 23.7814 31.8928 22.0093 29.6658 22.0037C27.4388 22.0037 25.7187 23.7814 25.5649 26.2229C25.4168 28.5856 26.818 29.8626 26.63 31.8147C26.368 34.5543 24.2948 36.512 23.56 39.5667C22.8481 42.5089 23.5828 47.4425 25.1662 50.3341L25.4225 50.8066H33.9091L34.1654 50.3341C35.7488 47.4425 36.4836 42.5145 35.7716 39.5667C35.0369 36.512 32.9636 34.5487 32.7016 31.8147ZM31.9441 26.3297C32.0409 27.9443 31.0271 29.0919 30.879 30.999H28.4526C28.3046 29.0919 27.285 27.9443 27.3875 26.3297C27.5926 22.9488 31.739 22.9488 31.9441 26.3297ZM32.8041 49.0008H26.5275C25.3314 46.4581 24.7618 42.3233 25.3314 39.983C25.9408 37.4628 27.7236 35.6513 28.2989 32.7992H31.0328C31.6137 35.6513 33.3908 37.4628 34.0002 39.983C34.5698 42.3233 34.0002 46.4581 32.8041 49.0008Z" fill="#FCFCFC"/>
</svg>
