<svg width="94" height="80" viewBox="0 0 94 80" fill="none" xmlns="http://www.w3.org/2000/svg">
<path d="M39.1308 57.5156C38.6565 60.5156 37.8976 63.375 36.8542 66.0938C35.8108 68.7188 34.5302 71.0625 33.0125 73.125C31.4948 75.1875 29.8348 76.8281 28.0325 78.0469C26.3251 79.1719 24.5702 79.7344 22.768 79.7344C19.3531 79.7344 15.8434 79.2188 12.2389 78.1875C8.72917 77.1562 5.97832 75.4219 3.98633 72.9844C3.41719 72.1406 2.84805 71.1562 2.27891 70.0312C1.70977 68.9062 1.28291 67.5469 0.99834 65.9531C0.71377 64.3594 0.524056 62.4375 0.429199 60.1875C0.429199 57.9375 0.666341 55.3125 1.14062 52.3125C1.70977 48 2.6109 43.8281 3.84404 39.7969C5.07718 35.7656 6.97432 31.6406 9.53545 27.4219C12.1914 23.2031 15.6537 18.8906 19.9223 14.4844C24.2857 9.98438 29.8348 5.15625 36.5696 0L43.9685 10.2656C35.6211 16.4531 29.6451 21.9375 26.0405 26.7188C22.5308 31.4062 20.5388 35.5312 20.0646 39.0938C19.8748 40.7812 20.3965 42.0938 21.6297 43.0312C22.8628 43.9688 24.4754 44.7188 26.4674 45.2812C30.6411 46.3125 33.8662 47.9531 36.1428 50.2031C38.5142 52.3594 39.5102 54.7969 39.1308 57.5156ZM88.9306 57.5156C88.4563 60.5156 87.6974 63.375 86.654 66.0938C85.6106 68.7188 84.33 71.0625 82.8123 73.125C81.2946 75.1875 79.6346 76.8281 77.8323 78.0469C76.1249 79.1719 74.3701 79.7344 72.5678 79.7344C69.1529 79.7344 65.6432 79.2188 62.0387 78.1875C58.529 77.1562 55.7781 75.4219 53.7861 72.9844C53.217 72.1406 52.6478 71.1562 52.0787 70.0312C51.5096 68.9062 51.0827 67.5469 50.7981 65.9531C50.5136 64.3594 50.3239 62.4375 50.229 60.1875C50.229 57.9375 50.4661 55.3125 50.9404 52.3125C51.5096 48 52.4107 43.8281 53.6438 39.7969C54.877 35.7656 56.7741 31.6406 59.3353 27.4219C61.9912 23.2031 65.4535 18.8906 69.7221 14.4844C74.0855 9.98438 79.6346 5.15625 86.3694 0L93.7683 10.2656C85.4209 16.4531 79.4449 21.9375 75.8403 26.7188C72.3306 31.4062 70.3386 35.5312 69.8644 39.0938C69.6746 40.7812 70.1964 42.0938 71.4295 43.0312C72.6626 43.9688 74.2752 44.7188 76.2672 45.2812C80.4409 46.3125 83.666 47.9531 85.9426 50.2031C88.314 52.3594 89.31 54.7969 88.9306 57.5156Z" fill="#F61067"/>
</svg>
