<svg width="37" height="36" viewBox="0 0 37 36" fill="none" xmlns="http://www.w3.org/2000/svg">
<path d="M0.67168 18C0.67168 8.34053 8.59629 0.5 18.3842 0.5C28.1721 0.5 36.0967 8.34053 36.0967 18C36.0967 27.6595 28.1721 35.5 18.3842 35.5C8.59629 35.5 0.67168 27.6595 0.67168 18Z" fill="#F61067" stroke="#F61067"/>
<path d="M12.7188 17.6464C12.5235 17.8417 12.5235 18.1583 12.7188 18.3536L15.9008 21.5355C16.096 21.7308 16.4126 21.7308 16.6079 21.5355C16.8031 21.3403 16.8031 21.0237 16.6079 20.8284L13.7794 18L16.6079 15.1716C16.8031 14.9763 16.8031 14.6597 16.6079 14.4645C16.4126 14.2692 16.096 14.2692 15.9008 14.4645L12.7188 17.6464ZM23.6963 17.5H13.0723V18.5H23.6963V17.5Z" fill="white"/>
</svg>
