<svg width="20" height="20" viewBox="0 0 20 20" fill="none" xmlns="http://www.w3.org/2000/svg">
<path opacity="0.9" d="M19.0689 1.89403V18.0195C19.0689 18.5739 18.6177 19.019 18.0648 19.019H13.4223V12.0023H15.7883L16.1419 9.26684H13.4182V7.51873C13.4182 6.72561 13.6377 6.18742 14.7801 6.18742H16.2354V3.73926C15.9834 3.70688 15.1215 3.63 14.1134 3.63C12.0157 3.63 10.5766 4.90466 10.5766 7.24761V9.26684H8.20242V12.0023H10.5766V19.0231H1.86057C1.30769 19.0231 0.856445 18.5739 0.856445 18.0236V1.89403C0.856445 1.3437 1.30769 0.894531 1.86057 0.894531H18.0608C18.6177 0.894531 19.0689 1.3437 19.0689 1.89403Z" fill="#FCFCFC"/>
</svg>
