<svg width="19" height="20" viewBox="0 0 19 20" fill="none" xmlns="http://www.w3.org/2000/svg">
<path opacity="0.9" d="M9.66102 5.30991C7.07693 5.30991 4.9926 7.38465 4.9926 9.95683C4.9926 12.529 7.07693 14.6038 9.66102 14.6038C12.2451 14.6038 14.3294 12.529 14.3294 9.95683C14.3294 7.38465 12.2451 5.30991 9.66102 5.30991ZM9.66102 12.9779C7.99111 12.9779 6.62594 11.6231 6.62594 9.95683C6.62594 8.29058 7.98705 6.93573 9.66102 6.93573C11.335 6.93573 12.6961 8.29058 12.6961 9.95683C12.6961 11.6231 11.3309 12.9779 9.66102 12.9779ZM15.6093 5.11983C15.6093 5.72243 15.1217 6.20371 14.5204 6.20371C13.915 6.20371 13.4315 5.71839 13.4315 5.11983C13.4315 4.52127 13.9191 4.03595 14.5204 4.03595C15.1217 4.03595 15.6093 4.52127 15.6093 5.11983ZM18.7012 6.21989C18.6322 4.76798 18.299 3.48188 17.2304 2.42227C16.1659 1.36266 14.8739 1.03103 13.4152 0.958229C11.9119 0.873299 7.40604 0.873299 5.90272 0.958229C4.44816 1.02698 3.15612 1.35862 2.08754 2.41823C1.01897 3.47784 0.689861 4.76393 0.616727 6.21584C0.531404 7.71224 0.531404 12.1974 0.616727 13.6938C0.685798 15.1457 1.01897 16.4318 2.08754 17.4914C3.15612 18.551 4.44409 18.8826 5.90272 18.9554C7.40604 19.0404 11.9119 19.0404 13.4152 18.9554C14.8739 18.8867 16.1659 18.5551 17.2304 17.4914C18.2949 16.4318 18.6281 15.1457 18.7012 13.6938C18.7866 12.1974 18.7866 7.71628 18.7012 6.21989ZM16.7591 15.2994C16.4422 16.0921 15.8287 16.7028 15.0283 17.0223C13.8297 17.4954 10.9856 17.3862 9.66102 17.3862C8.33647 17.3862 5.48829 17.4914 4.29376 17.0223C3.49741 16.7068 2.88389 16.0961 2.56292 15.2994C2.08754 14.1063 2.19724 11.2753 2.19724 9.95683C2.19724 8.63839 2.0916 5.80332 2.56292 4.61429C2.87983 3.82161 3.49335 3.21091 4.29376 2.89141C5.49235 2.41823 8.33647 2.52742 9.66102 2.52742C10.9856 2.52742 13.8337 2.42227 15.0283 2.89141C15.8246 3.20687 16.4381 3.81756 16.7591 4.61429C17.2345 5.80737 17.1248 8.63839 17.1248 9.95683C17.1248 11.2753 17.2345 14.1103 16.7591 15.2994Z" fill="#FCFCFC"/>
</svg>
