<svg width="19" height="16" viewBox="0 0 19 16" fill="none" xmlns="http://www.w3.org/2000/svg">
<path opacity="0.9" d="M2.20923 3.8447C2.23182 3.62357 2.14522 3.40245 1.97955 3.25254L0.281436 1.21373V0.910156H5.56028L9.64178 9.81872L13.23 0.910156H18.2641V1.21373L16.8108 2.60042C16.6865 2.69412 16.6225 2.85152 16.6489 3.00519V13.1992C16.6225 13.3529 16.6865 13.5103 16.8108 13.604L18.2302 14.9907V15.2943H11.0876V14.9907L12.5598 13.5703C12.7029 13.4279 12.7029 13.3829 12.7029 13.1655V4.92781L8.61011 15.268H8.05662L3.29738 4.92781V11.8575C3.25596 12.1499 3.35386 12.4422 3.56094 12.6521L5.47368 14.9607V15.2643H0.0517578V14.9645L1.96449 12.6521C2.16781 12.4422 2.26194 12.1461 2.20923 11.8575V3.8447Z" fill="#FCFCFC"/>
</svg>
