<svg width="19" height="16" viewBox="0 0 19 16" fill="none" xmlns="http://www.w3.org/2000/svg">
<path opacity="0.9" d="M16.4885 4.57962C16.5001 4.74066 16.5001 4.90173 16.5001 5.06277C16.5001 9.97456 12.7443 15.6341 5.87986 15.6341C3.76505 15.6341 1.8005 15.0244 0.147949 13.9662C0.448423 14.0007 0.737301 14.0122 1.04934 14.0122C2.7943 14.0122 4.40065 13.4255 5.6834 12.4248C4.04241 12.3902 2.66721 11.3204 2.19339 9.84804C2.42454 9.88253 2.65565 9.90555 2.89835 9.90555C3.23347 9.90555 3.56863 9.85952 3.88063 9.77903C2.17031 9.43391 0.88752 7.93853 0.88752 6.13255V6.08655C1.38442 6.36263 1.96228 6.53517 2.57472 6.55815C1.56932 5.89096 0.910641 4.75217 0.910641 3.46381C0.910641 2.77364 1.09551 2.14097 1.4191 1.58882C3.25656 3.84342 6.01852 5.31579 9.11557 5.47686C9.0578 5.20079 9.02312 4.91324 9.02312 4.62565C9.02312 2.57808 10.6872 0.910156 12.7558 0.910156C13.8305 0.910156 14.8012 1.35878 15.4831 2.08347C16.3267 1.92243 17.1356 1.61184 17.8521 1.18623C17.5747 2.04898 16.9854 2.77368 16.2111 3.23377C16.9623 3.15329 17.6903 2.94618 18.3606 2.65864C17.8522 3.3948 17.2166 4.05045 16.4885 4.57962Z" fill="#FCFCFC"/>
</svg>
