<svg width="27" height="20" viewBox="0 0 27 20" fill="none" xmlns="http://www.w3.org/2000/svg">
<path opacity="0.9" d="M25.6222 3.73103C25.3243 2.61452 24.4466 1.7352 23.3321 1.43678C21.3122 0.894531 13.2123 0.894531 13.2123 0.894531C13.2123 0.894531 5.11253 0.894531 3.09251 1.43678C1.97809 1.73524 1.10038 2.61452 0.802482 3.73103C0.26123 5.75477 0.26123 9.97712 0.26123 9.97712C0.26123 9.97712 0.26123 14.1995 0.802482 16.2232C1.10038 17.3397 1.97809 18.1824 3.09251 18.4808C5.11253 19.0231 13.2123 19.0231 13.2123 19.0231C13.2123 19.0231 21.3121 19.0231 23.3321 18.4808C24.4466 18.1824 25.3243 17.3397 25.6222 16.2232C26.1634 14.1995 26.1634 9.97712 26.1634 9.97712C26.1634 9.97712 26.1634 5.75477 25.6222 3.73103ZM10.5632 13.8107V6.14355L17.3331 9.97721L10.5632 13.8107Z" fill="#FCFCFC"/>
</svg>
