<svg width="49" height="48" viewBox="0 0 49 48" fill="none" xmlns="http://www.w3.org/2000/svg">
<ellipse cx="24.7108" cy="24.0992" rx="24.2542" ry="23.8551" fill="#C4C4C4" fill-opacity="0.05"/>
<path d="M48.465 24.0992C48.465 36.9901 37.8377 47.4543 24.7108 47.4543C11.5838 47.4543 0.956543 36.9901 0.956543 24.0992C0.956543 11.2084 11.5838 0.744141 24.7108 0.744141C37.8377 0.744141 48.465 11.2084 48.465 24.0992Z" stroke="white" stroke-opacity="0.5"/>
<path d="M32.1391 24.4532C32.3343 24.2579 32.3343 23.9413 32.1391 23.7461L28.9571 20.5641C28.7618 20.3688 28.4452 20.3688 28.25 20.5641C28.0547 20.7593 28.0547 21.0759 28.25 21.2712L31.0784 24.0996L28.25 26.928C28.0547 27.1233 28.0547 27.4399 28.25 27.6351C28.4452 27.8304 28.7618 27.8304 28.9571 27.6351L32.1391 24.4532ZM17.6372 24.5996H31.7855V23.5996H17.6372V24.5996Z" fill="#FCFCFC"/>
</svg>
