<svg width="22" height="46" viewBox="0 0 22 46" fill="none" xmlns="http://www.w3.org/2000/svg">
<mask id="path-1-inside-1_80_16" fill="white">
<path fill-rule="evenodd" clip-rule="evenodd" d="M21.3234 10.6436C21.3234 10.8082 21.3195 10.9719 21.3119 11.1346C21.3117 11.1379 21.3143 11.1406 21.3176 11.1406C21.3208 11.1406 21.3234 11.1432 21.3234 11.1464V35.4932V35.9836C21.3234 35.987 21.3207 35.9897 21.3174 35.9897C21.3141 35.9897 21.3115 35.9922 21.3113 35.9954C21.0455 41.5262 16.4125 45.9298 10.7362 45.9298C5.05978 45.9298 0.426772 41.5262 0.160967 35.9954C0.160813 35.9922 0.158163 35.9897 0.154948 35.9897C0.151622 35.9897 0.148926 35.987 0.148926 35.9836V35.4932V11.1464C0.148926 11.1432 0.151503 11.1406 0.154682 11.1406C0.157969 11.1406 0.160588 11.1379 0.160434 11.1346C0.15279 10.9719 0.148926 10.8082 0.148926 10.6436C0.148926 4.87965 4.88899 0.207031 10.7362 0.207031C16.5833 0.207031 21.3234 4.87965 21.3234 10.6436Z"/>
</mask>
<path d="M0.160967 35.9954L-0.83788 36.0434L0.160967 35.9954ZM21.3113 35.9954L20.3125 35.9474L21.3113 35.9954ZM21.3119 11.1346L20.313 11.0877L21.3119 11.1346ZM22.3108 11.1815C22.3192 11.0032 22.3234 10.8239 22.3234 10.6436H20.3234C20.3234 10.7925 20.3199 10.9406 20.313 11.0877L22.3108 11.1815ZM22.3234 35.4932V11.1464H20.3234V35.4932H22.3234ZM22.3234 35.9836V35.4932H20.3234V35.9836H22.3234ZM20.3125 35.9474C20.0728 40.9352 15.8889 44.9298 10.7362 44.9298V46.9298C16.9361 46.9298 22.0183 42.1172 22.3102 36.0434L20.3125 35.9474ZM10.7362 44.9298C5.58337 44.9298 1.39952 40.9352 1.15981 35.9474L-0.83788 36.0434C-0.545981 42.1172 4.53619 46.9298 10.7362 46.9298V44.9298ZM-0.851074 35.4932V35.9836H1.14893V35.4932H-0.851074ZM-0.851074 11.1464V35.4932H1.14893V11.1464H-0.851074ZM-0.851074 10.6436C-0.851074 10.8239 -0.846842 11.0032 -0.838464 11.1815L1.15933 11.0877C1.15242 10.9406 1.14893 10.7925 1.14893 10.6436H-0.851074ZM10.7362 -0.792969C4.35026 -0.792969 -0.851074 4.31391 -0.851074 10.6436H1.14893C1.14893 5.4454 5.42772 1.20703 10.7362 1.20703V-0.792969ZM22.3234 10.6436C22.3234 4.31391 17.122 -0.792969 10.7362 -0.792969V1.20703C16.0446 1.20703 20.3234 5.4454 20.3234 10.6436H22.3234ZM1.14893 11.1464C1.14893 11.6955 0.703788 12.1406 0.154682 12.1406V10.1406C-0.400782 10.1406 -0.851074 10.5909 -0.851074 11.1464H1.14893ZM0.154948 34.9897C0.703903 34.9897 1.14893 35.4347 1.14893 35.9836H-0.851074C-0.851074 36.5392 -0.400659 36.9897 0.154948 36.9897V34.9897ZM20.3234 35.9836C20.3234 35.4347 20.7684 34.9897 21.3174 34.9897V36.9897C21.873 36.9897 22.3234 36.5392 22.3234 35.9836H20.3234ZM1.15981 35.9474C1.13435 35.4176 0.698153 34.9897 0.154948 34.9897V36.9897C-0.381826 36.9897 -0.812725 36.5668 -0.83788 36.0434L1.15981 35.9474ZM21.3176 12.1406C20.7684 12.1406 20.3234 11.6954 20.3234 11.1464H22.3234C22.3234 10.591 21.8732 10.1406 21.3176 10.1406V12.1406ZM21.3174 34.9897C20.7741 34.9897 20.338 35.4177 20.3125 35.9474L22.3102 36.0434C22.285 36.5667 21.8542 36.9897 21.3174 36.9897V34.9897ZM0.154682 12.1406C0.728933 12.1406 1.18626 11.6608 1.15933 11.0877L-0.838464 11.1815C-0.86508 10.615 -0.412995 10.1406 0.154682 10.1406V12.1406ZM20.313 11.0877C20.2861 11.6608 20.7434 12.1406 21.3176 12.1406V10.1406C21.8853 10.1406 22.3374 10.615 22.3108 11.1815L20.313 11.0877Z" fill="white" fill-opacity="0.5" mask="url(#path-1-inside-1_80_16)"/>
<path d="M10.8354 37.1905C11.0307 37.3858 11.3473 37.3858 11.5425 37.1905L14.7245 34.0085C14.9198 33.8133 14.9198 33.4967 14.7245 33.3014C14.5292 33.1062 14.2127 33.1062 14.0174 33.3014L11.189 36.1298L8.36054 33.3014C8.16528 33.1062 7.84869 33.1062 7.65343 33.3014C7.45817 33.4967 7.45817 33.8133 7.65343 34.0085L10.8354 37.1905ZM10.689 10L10.689 36.837H11.689L11.689 10H10.689Z" fill="#FCFCFC"/>
</svg>
