<svg width="19" height="28" viewBox="0 0 19 28" fill="none" xmlns="http://www.w3.org/2000/svg">
<path d="M13.0886 5.15073V18.0276H5.85631V5.15073H13.0886ZM15.8007 0H3.14422C1.64692 0 0.432129 1.15355 0.432129 2.57537V24.8952C0.432129 26.317 1.64692 27.4706 3.14422 27.4706H15.8007C17.298 27.4706 18.5127 26.317 18.5127 24.8952V2.57537C18.5127 1.15355 17.298 0 15.8007 0ZM3.14422 25.7537C2.647 25.7537 2.24019 25.3673 2.24019 24.8952V2.57537C2.24019 2.10321 2.647 1.71691 3.14422 1.71691H15.8007C16.2979 1.71691 16.7047 2.10321 16.7047 2.57537V24.8952C16.7047 25.3673 16.2979 25.7537 15.8007 25.7537H3.14422ZM14.2186 3.43382H4.72627C4.35336 3.43382 4.04825 3.72355 4.04825 4.07766V19.1006C4.04825 19.4547 4.35336 19.7445 4.72627 19.7445H14.2186C14.5915 19.7445 14.8966 19.4547 14.8966 19.1006V4.07766C14.8966 3.72355 14.5915 3.43382 14.2186 3.43382ZM11.5065 22.3198H7.43837C7.06545 22.3198 6.76034 22.6096 6.76034 22.9637V23.3929C6.76034 23.747 7.06545 24.0367 7.43837 24.0367H11.5065C11.8794 24.0367 12.1845 23.747 12.1845 23.3929V22.9637C12.1845 22.6096 11.8794 22.3198 11.5065 22.3198Z" fill="#FCFCFC"/>
</svg>
